# Blender v2.78 (sub 0) OBJ File: 'CartoonTree.blend'
# www.blender.org
mtllib pineTree.mtl
o Pine_Tree_Cone
v 0.388128 4.336876 -0.937024
v 0.937962 4.334943 0.388517
v -0.000000 4.327174 0.969458
v 0.000000 6.266089 0.000000
v -0.937024 4.336875 0.388128
v -0.685510 4.327174 -0.685510
v 0.610931 2.562644 -1.474918
v 1.476395 2.559602 0.611543
v -0.000000 2.547373 1.525971
v 0.000000 5.599314 0.000000
v -1.474918 2.562644 0.610931
v -1.079024 2.547373 -1.079024
v 0.000000 0.656203 -2.086378
v 2.013218 0.683995 -0.833902
v 1.475292 0.656203 1.475292
v -0.835293 0.677082 2.016576
v 0.000000 4.828959 0.000000
v -2.016576 0.677082 -0.835293
v 0.199849 -1.000000 -0.627953
v 0.551814 -1.000000 0.431665
v 0.551814 1.000000 -0.431665
v 0.199849 1.000000 0.627953
v -0.695425 -1.000000 0.084959
v -0.695425 1.000000 -0.084959
vn -0.8950 0.3918 -0.2132
vn -0.4821 0.3918 0.7836
vn 0.4821 0.3918 0.7836
vn -0.2132 0.3918 -0.8950
vn 0.8660 0.3484 -0.3587
vn 0.4821 0.3918 -0.7836
vn -0.8660 0.3484 0.3587
vn 0.2132 0.3918 0.8950
vn 0.8950 0.3918 0.2132
vn -0.4821 0.3918 -0.7836
vn 0.0020 -1.0000 -0.0013
vn -0.0016 -1.0000 0.0007
vn 0.9404 -0.1348 -0.3123
vn 0.0000 1.0000 -0.0000
vn -0.4429 -0.0449 0.8955
vn 0.9404 0.1348 0.3123
vn -0.4429 0.0449 -0.8955
vn 0.0000 -1.0000 -0.0000
usemtl Material.001
s off
f 5//1 4//1 6//1
f 3//2 4//2 5//2
f 2//3 4//3 3//3
f 6//4 4//4 1//4
f 1//5 4//5 2//5
f 11//1 10//1 12//1
f 9//2 10//2 11//2
f 8//3 10//3 9//3
f 12//4 10//4 7//4
f 7//5 10//5 8//5
f 13//6 17//6 14//6
f 16//7 17//7 18//7
f 15//8 17//8 16//8
f 14//9 17//9 15//9
f 18//10 17//10 13//10
f 5//11 6//11 1//11 2//11 3//11
f 11//11 12//11 7//11 8//11 9//11
f 15//12 16//12 18//12 13//12 14//12
usemtl Material.002
f 21//13 20//13 19//13
f 24//14 22//14 21//14
f 23//15 20//15 22//15 24//15
f 21//16 22//16 20//16
f 19//17 23//17 24//17 21//17
f 23//18 19//18 20//18
