# Blender v2.78 (sub 0) OBJ File: ''
# www.blender.org
o SpruceTree2_Cylinder.001
v 0.315980 -0.252741 0.234719
v 0.174339 0.240671 0.142848
v -0.091633 -0.252741 0.309610
v -0.072462 0.254290 0.165703
v 0.211809 1.542930 0.047476
v 0.054478 1.542930 0.154380
v -0.095811 1.542930 0.037784
v -0.031364 1.542930 -0.141179
v 0.158756 1.542930 -0.135189
v 0.127441 3.083840 0.059789
v 0.008821 3.083840 0.055751
v -0.023994 3.083840 -0.058311
v 0.074345 3.083840 -0.124767
v 0.167937 3.083840 -0.051778
v -0.167220 5.449241 0.042581
v -0.099745 5.449241 0.081673
v -0.150891 5.449241 -0.033671
v -0.073326 5.449241 -0.041705
v -0.041716 5.449241 0.029581
v -0.076337 3.583117 -0.459309
v -0.131758 6.679629 0.008902
v 0.332006 3.588964 -0.223059
v -0.131758 6.679629 0.008902
v 0.331164 3.589380 0.247988
v -0.131758 6.679629 0.008902
v -0.078023 3.583950 0.482785
v -0.131758 6.679629 0.008902
v -0.486367 3.578105 0.246536
v -0.131758 6.679629 0.008902
v -0.485524 3.577689 -0.224511
v -0.131758 6.679629 0.008902
v -0.022763 1.691166 -0.137763
v 0.094427 1.692844 -0.069962
v 0.094185 1.692963 0.065223
v -0.023247 1.691405 0.132607
v -0.140437 1.689728 0.064806
v -0.140195 1.689608 -0.070379
v -1.029490 3.036509 0.016182
v -0.559201 3.703525 -0.811626
v 0.424621 3.687035 -0.846663
v 0.940501 3.215544 -0.039762
v 0.482009 3.614617 0.859099
v -0.501813 3.631108 0.894136
v 1.379014 0.580346 -0.125599
v 0.610448 1.113610 -1.178204
v -1.260690 0.349082 0.109360
v -0.499240 1.032429 1.233970
v 0.821319 1.027086 1.109331
v -0.710111 1.118954 -1.053564
v 0.656376 2.058156 -0.507176
v -0.716426 2.500450 0.522418
v -0.129207 2.534200 -0.822147
v 0.740802 2.522378 0.356587
v -0.672646 3.050075 -0.134727
v 0.072104 1.880752 0.830598
v -0.381153 5.542825 -0.074531
v -0.131987 5.067366 -0.438580
v 0.275339 4.592747 -0.225680
v 0.266082 4.975249 0.268524
v -0.140474 4.413405 0.466922
v -0.548711 5.016882 0.261550
v -0.158063 0.327241 -0.110941
v -0.297421 -0.255147 -0.021154
v 0.370713 -0.252741 -0.176087
v 0.226466 0.222466 -0.109477
v 0.026392 0.319664 -0.245529
v -0.000073 -0.251312 -0.366452
vt 0.5000 0.7461
vt 0.5000 0.7461
vt 0.5000 0.7461
vt 0.5000 0.7461
vt 0.5000 0.7461
vt 0.5000 0.7461
vt 0.5000 0.7461
vt 0.5000 0.7461
vt 0.5000 0.7461
vt 0.5000 0.7461
vt 0.5000 0.7461
vt 0.5000 0.7461
vt 0.5000 0.7461
vt 0.5000 0.7461
vt 0.5000 0.7461
vt 0.5000 0.7461
vt 0.5000 0.7461
vt 0.5000 0.7461
vt 0.5000 0.7461
vt 0.5000 0.7461
vt 0.5000 0.7461
vt 0.5000 0.7461
vt 0.5000 0.7461
vt 0.5000 0.7461
vt 0.5000 0.7461
vt 0.5000 0.7461
vt 0.5000 0.7461
vt 0.5000 0.7461
vt 0.5000 0.7461
vt 0.5000 0.7461
vt 0.5000 0.7461
vt 0.5000 0.7461
vt 0.5000 0.7461
vt 0.5000 0.7461
vt 0.5000 0.7461
vt 0.5000 0.7461
vt 0.5000 0.7461
vt 0.5000 0.7461
vt 0.5000 0.7461
vt 0.5000 0.7461
vt 0.5000 0.7461
vt 0.5000 0.7461
vt 0.4995 0.2461
vt 0.4995 0.2461
vt 0.4995 0.2461
vt 0.4995 0.2461
vt 0.4995 0.2461
vt 0.4995 0.2461
vt 0.4995 0.2461
vt 0.4995 0.2461
vt 0.4995 0.2461
vt 0.4995 0.2461
vt 0.4995 0.2461
vt 0.4995 0.2461
vt 0.4995 0.2461
vt 0.4995 0.2461
vt 0.4995 0.2461
vt 0.4995 0.2461
vt 0.4995 0.2461
vt 0.4995 0.2461
vt 0.4995 0.2461
vt 0.4995 0.2461
vt 0.4995 0.2461
vt 0.4995 0.2461
vt 0.4995 0.2461
vt 0.4995 0.2461
vt 0.4995 0.2461
vn -0.6678 0.1991 -0.7172
vn 0.6318 0.2072 -0.7469
vn 0.9687 0.2047 -0.1403
vn 0.2015 0.1933 0.9602
vn 0.0000 0.0000 1.0000
vn -0.1953 0.1950 0.9612
vn -0.9658 0.2217 -0.1345
vn -0.6530 -0.7572 0.0181
vn 0.7636 -0.6442 -0.0441
vn -0.5922 -0.8050 -0.0355
vn -0.0072 -0.8876 0.4606
vn 0.0005 -0.8717 -0.4900
vn 0.6968 -0.7130 -0.0775
vn 0.7363 -0.6273 0.2537
vn -0.0519 -0.9954 0.0802
vn -0.1701 -0.9290 0.3288
vn -0.5952 -0.7520 -0.2833
vn 0.0495 -0.9877 -0.1480
vn 0.2202 -0.7903 -0.5718
vn -0.8497 0.2399 -0.4695
vn 0.0410 0.4064 0.9128
vn 0.1568 0.3162 -0.9357
vn 0.7488 0.3298 0.5750
vn -0.9192 0.1638 0.3580
vn 0.8675 0.3276 -0.3743
vn 0.9227 0.3664 0.1197
vn -0.9155 0.2747 -0.2940
vn 0.0907 0.2069 0.9741
vn 0.7582 0.2707 -0.5931
vn -0.5309 0.3148 0.7868
vn -0.2557 0.3275 -0.9096
vn -0.9431 0.1957 0.2687
vn 0.0893 0.4453 0.8909
vn 0.7002 0.3749 0.6076
vn 0.8710 0.3784 -0.3133
vn 0.2434 0.3640 -0.8990
vn -0.8432 0.2683 -0.4659
vn 0.0138 -0.9999 0.0009
vn 0.9479 0.2836 0.1450
vn -0.8690 0.2214 0.4426
vn -0.9976 0.0445 0.0534
vn 0.0023 -1.0000 -0.0012
vn 0.9988 0.0257 -0.0426
vn -0.3228 0.0653 -0.9442
vn -0.2286 0.0311 0.9730
vn 0.7870 0.0284 -0.6164
vn 0.8641 0.0120 0.5032
vn 0.7529 0.0796 -0.6533
vn -0.8329 0.0337 -0.5524
vn 0.3490 0.0409 0.9362
vn 0.2681 0.0212 -0.9632
vn -0.7824 0.0459 0.6211
vn 0.0000 1.0000 0.0000
vn -0.9942 -0.0639 0.0861
vn 0.8548 0.0677 0.5146
vn -0.3899 -0.0017 -0.9208
vn -0.2257 -0.0210 0.9740
vn 0.1482 0.2440 0.9584
vn -0.7002 0.1197 -0.7039
vn 0.5123 0.2071 -0.8334
usemtl SpruceTreeLeaf.001
s 1
f 56/1/1 21/2/1 23/3/1 57/4/1
f 57/4/2 23/3/2 25/5/2 58/6/2
f 58/6/3 25/5/3 27/7/3 59/8/3
f 59/8/4 27/7/4 29/9/4 60/10/4
f 23/3/5 21/2/5 31/11/5 29/9/5 27/7/5 25/5/5
f 60/10/6 29/9/6 31/11/6 61/12/6
f 61/12/7 31/11/7 21/2/7 56/1/7
f 45/13/8 44/14/8 35/15/8 34/16/8
f 47/17/9 46/18/9 32/19/9 37/20/9
f 44/14/10 48/21/10 36/22/10 35/15/10
f 49/23/11 45/13/11 34/16/11 33/24/11
f 48/21/12 47/17/12 37/20/12 36/22/12
f 46/18/13 49/23/13 33/24/13 32/19/13
f 30/25/14 43/26/14 38/27/14 20/28/14
f 28/29/15 42/30/15 43/26/15 30/25/15
f 26/31/16 41/32/16 42/30/16 28/29/16
f 24/33/17 40/34/17 41/32/17 26/31/17
f 22/35/18 39/36/18 40/34/18 24/33/18
f 20/28/19 38/27/19 39/36/19 22/35/19
f 54/37/20 52/38/20 49/23/20 46/18/20
f 55/39/21 51/40/21 47/17/21 48/21/21
f 52/38/22 50/41/22 45/13/22 49/23/22
f 53/42/23 55/39/23 48/21/23 44/14/23
f 51/40/24 54/37/24 46/18/24 47/17/24
f 50/41/25 53/42/25 44/14/25 45/13/25
f 24/33/26 26/31/26 53/42/26 50/41/26
f 30/25/27 20/28/27 54/37/27 51/40/27
f 26/31/28 28/29/28 55/39/28 53/42/28
f 22/35/29 24/33/29 50/41/29 52/38/29
f 28/29/30 30/25/30 51/40/30 55/39/30
f 20/28/31 22/35/31 52/38/31 54/37/31
f 43/26/32 61/12/32 56/1/32 38/27/32
f 42/30/33 60/10/33 61/12/33 43/26/33
f 41/32/34 59/8/34 60/10/34 42/30/34
f 40/34/35 58/6/35 59/8/35 41/32/35
f 39/36/36 57/4/36 58/6/36 40/34/36
f 38/27/37 56/1/37 57/4/37 39/36/37
f 32/19/38 33/24/38 34/16/38 35/15/38 36/22/38 37/20/38
usemtl SpruceTreeTrunk.001
f 64/43/39 65/44/39 2/45/39 1/46/39
f 3/47/40 4/48/40 62/49/40 63/50/40
f 62/49/41 4/48/41 7/51/41 8/52/41
f 64/43/42 1/46/42 3/47/42 63/50/42 67/53/42
f 5/54/43 9/55/43 14/56/43 10/57/43
f 66/58/44 62/49/44 8/52/44 9/55/44
f 4/48/45 2/45/45 6/59/45 7/51/45
f 65/44/46 66/58/46 9/55/46 5/54/46
f 2/45/47 65/44/47 5/54/47 6/59/47
f 14/56/48 13/60/48 18/61/48 19/62/48
f 8/52/49 7/51/49 12/63/49 13/60/49
f 6/59/50 5/54/50 10/57/50 11/64/50
f 9/55/51 8/52/51 13/60/51 14/56/51
f 7/51/52 6/59/52 11/64/52 12/63/52
f 15/65/53 16/66/53 19/62/53 18/61/53 17/67/53
f 12/63/54 11/64/54 15/65/54 17/67/54
f 10/57/55 14/56/55 19/62/55 16/66/55
f 13/60/56 12/63/56 17/67/56 18/61/56
f 11/64/57 10/57/57 16/66/57 15/65/57
f 1/46/58 2/45/58 4/48/58 3/47/58
f 62/49/59 66/58/59 67/53/59 63/50/59
f 65/44/60 64/43/60 67/53/60 66/58/60
